<svg xmlns="http://www.w3.org/2000/svg">
  <symbol id="triangle" viewBox="0 0 11 8">
    <path fill="currentColor" d="M4.794 6.944L.298 1.804C-.232 1.2.198.25 1.004.25h8.992a.937.937 0 0 1 .706 1.555L6.206 6.943a.938.938 0 0 1-1.412 0z" />
  </symbol>
  <symbol id="arrow" viewBox="0 0 22 14">
    <path fill="currentColor" fill-rule="evenodd" d="M15.343.278l6.364 6.05c.39.371.39.973 0 1.344l-6.364 6.05a1.037 1.037 0 0 1-1.414 0 .918.918 0 0 1 0-1.345l4.657-4.426H1c-.552 0-1-.426-1-.951 0-.525.448-.95 1-.95h17.586l-4.657-4.427a.918.918 0 0 1 0-1.345 1.037 1.037 0 0 1 1.414 0z" clip-rule="evenodd" />
  </symbol>
  <symbol id="global" viewBox="0 0 15 16">
    <path fill="currentColor" d="M7.768 15.5c1.147-.163 2.153-1.363 2.785-3.134a13.585 13.585 0 0 0-2.785-.329V15.5zm1.832-.282l.203-.061c.057-.018.112-.038.168-.057a6.6 6.6 0 0 0 .197-.072c.056-.02.111-.043.167-.066l.19-.08a7.58 7.58 0 0 0 1.342-.767c.05-.036.1-.071.148-.107l.162-.128.143-.115c.053-.045.105-.09.157-.137l.135-.122c.052-.048.101-.098.151-.147l.13-.129.023-.025a9.001 9.001 0 0 0-1.837-.708 6.668 6.668 0 0 1-1.713 2.788l.065-.016.17-.05zM15 8.269h-3.214a13.958 13.958 0 0 1-.542 3.716c.708.19 1.391.462 2.035.811A7.514 7.514 0 0 0 15 8.27zm-7.232-.538h3.481a13.464 13.464 0 0 0-.527-3.584c-.97.222-1.96.34-2.954.353v3.231zm0-7.231v3.463c.937-.013 1.87-.123 2.785-.329C9.921 1.863 8.915.664 7.768.5zm0 11c.994.013 1.984.131 2.954.353.336-1.165.514-2.371.527-3.584H7.77v3.23zm5.511-8.296a9.312 9.312 0 0 1-2.035.811c.347 1.209.53 2.459.542 3.716H15a7.516 7.516 0 0 0-1.721-4.527zm-.362-.408l-.023-.025-.13-.128c-.05-.05-.1-.1-.15-.147l-.136-.122c-.052-.046-.104-.093-.158-.137-.046-.04-.094-.077-.14-.115a5.695 5.695 0 0 0-.311-.235 6.74 6.74 0 0 0-.834-.52l-.16-.083a5.818 5.818 0 0 0-.351-.165c-.064-.029-.128-.054-.192-.081a7.786 7.786 0 0 0-.531-.195 6.549 6.549 0 0 0-.203-.061L9.43.734 9.364.718a6.668 6.668 0 0 1 1.714 2.787 8.986 8.986 0 0 0 1.839-.709zM0 7.731h3.214c.012-1.257.195-2.507.541-3.716a9.301 9.301 0 0 1-2.034-.811A7.514 7.514 0 0 0 0 7.73zM7.232 15.5v-3.463c-.937.013-1.87.123-2.785.329.632 1.771 1.638 2.97 2.785 3.134zm0-7.231H3.75c.014 1.213.192 2.418.528 3.584.97-.222 1.96-.34 2.954-.353V8.269zm0-7.769C6.085.663 5.079 1.863 4.447 3.634a13.58 13.58 0 0 0 2.785.329V.5zm0 4a14.094 14.094 0 0 1-2.954-.353 13.458 13.458 0 0 0-.528 3.584h3.482v-3.23zM5.633.717l-.065.016c-.057.015-.113.032-.17.049a8.79 8.79 0 0 0-.2.06L5.027.9l-.196.071a7.627 7.627 0 0 0-.167.067l-.19.08a7.704 7.704 0 0 0-.847.441l-.174.108a7.041 7.041 0 0 0-.469.326c-.055.041-.107.084-.162.127-.048.038-.096.076-.143.116-.053.044-.104.09-.156.136-.046.04-.092.08-.137.123-.05.047-.1.097-.15.146l-.13.129-.023.025c.585.303 1.2.54 1.837.708A6.665 6.665 0 0 1 5.633.717zm-3.397 12.64c.05.05.1.1.15.147l.136.122c.052.046.104.093.158.137.046.04.093.077.14.114.054.044.108.087.165.13l.146.107a7.519 7.519 0 0 0 .497.328 7.1 7.1 0 0 0 .337.191c.053.027.107.057.16.083a6.16 6.16 0 0 0 .351.166c.064.028.128.054.192.08a8.115 8.115 0 0 0 .363.138l.168.057c.067.022.134.042.203.062l.168.048.066.016a6.669 6.669 0 0 1-1.714-2.788 8.988 8.988 0 0 0-1.837.709l.023.025c.04.043.084.086.128.128zm-.515-.561a9.316 9.316 0 0 1 2.034-.811 13.963 13.963 0 0 1-.54-3.716H0a7.515 7.515 0 0 0 1.721 4.527z" />
  </symbol>
  <symbol id="checkbox" viewBox="0 0 24 24">
    <path d="M11.9764 23.4985C18.3541 23.4985 23.5242 18.3284 23.5242 11.9507C23.5242 5.57305 18.3541 0.402931 11.9764 0.402931C5.59877 0.402931 0.42865 5.57305 0.42865 11.9507C0.42865 18.3284 5.59877 23.4985 11.9764 23.4985Z" fill="currentColor"/>
    <path d="M12.0021 24.0043C9.62833 24.0043 7.30784 23.3004 5.3341 21.9815C3.36036 20.6627 1.82201 18.7883 0.913599 16.5952C0.00518517 14.402 -0.232497 11.9888 0.230608 9.66063C0.693713 7.33244 1.83681 5.19387 3.51534 3.51534C5.19387 1.83681 7.33244 0.693713 9.66063 0.230608C11.9888 -0.232497 14.402 0.00518517 16.5952 0.913599C18.7883 1.82201 20.6627 3.36036 21.9815 5.3341C23.3004 7.30784 24.0043 9.62833 24.0043 12.0021C24.0043 15.1853 22.7398 18.2381 20.4889 20.4889C18.2381 22.7398 15.1853 24.0043 12.0021 24.0043ZM12.0021 1.28593C9.88267 1.28593 7.8108 1.91443 6.04853 3.09194C4.28626 4.26945 2.91274 5.94309 2.10166 7.90122C1.29057 9.85935 1.07836 12.014 1.49184 14.0928C1.90533 16.1715 2.92595 18.0809 4.42464 19.5796C5.92332 21.0783 7.83277 22.0989 9.91151 22.5124C11.9902 22.9259 14.1449 22.7137 16.103 21.9026C18.0612 21.0915 19.7348 19.718 20.9123 17.9557C22.0898 16.1935 22.7183 14.1216 22.7183 12.0021C22.7183 9.16002 21.5893 6.43431 19.5796 4.42464C17.57 2.41496 14.8442 1.28593 12.0021 1.28593Z" fill="currentColor"/>
    <path d="M10.6647 16.9059C10.4932 16.905 10.3286 16.8374 10.2061 16.7173L6.66974 13.1809C6.61007 13.121 6.5628 13.0499 6.53061 12.9716C6.49843 12.8934 6.48197 12.8096 6.48216 12.725C6.48236 12.6405 6.49922 12.5568 6.53177 12.4787C6.56432 12.4006 6.61193 12.3297 6.67188 12.2701C6.73183 12.2104 6.80295 12.1631 6.88117 12.1309C6.95939 12.0987 7.04318 12.0823 7.12777 12.0825C7.21235 12.0827 7.29606 12.0995 7.37413 12.1321C7.4522 12.1646 7.52309 12.2122 7.58276 12.2722L10.639 15.3285L16.5072 8.81301C16.5619 8.74483 16.6299 8.68853 16.7071 8.64753C16.7843 8.60653 16.8691 8.58171 16.9562 8.57457C17.0433 8.56743 17.131 8.57812 17.2138 8.60601C17.2966 8.63389 17.3729 8.67837 17.438 8.73673C17.5031 8.79509 17.5556 8.8661 17.5923 8.94543C17.629 9.02476 17.6491 9.11074 17.6515 9.19812C17.6538 9.28549 17.6383 9.37243 17.6059 9.45362C17.5735 9.5348 17.5249 9.60853 17.4631 9.6703L11.1448 16.6916C11.0865 16.7572 11.0153 16.8101 10.9357 16.8469C10.856 16.8838 10.7696 16.9039 10.6819 16.9059H10.6647Z" fill="#fff"/>
  </symbol>
</svg>